<svg width="73" height="65" viewBox="0 0 73 65" fill="none" xmlns="http://www.w3.org/2000/svg">
<g id="dog-origami-paper-svgrepo-com (2) 1" clip-path="url(#clip0_1_122)">
<g id="SVGRepo_iconCarrier">
<g id="n">
<path id="o" d="M8.94248 47.0694L16.1121 44.9051L14.6912 39.295L1.91624 33.1287C1.55124 32.9474 1.16016 33.3101 1.3557 33.6486L8.27766 46.0779C8.4732 46.4286 8.69481 46.755 8.94248 47.0815V47.0694Z" fill="#7796DF"/>
<path id="p" d="M37.8818 54.8921L41.5839 43.2003L37.8557 31.4118H21.8218C21.0005 31.4239 20.2314 31.7987 19.7621 32.4274L14.6913 39.2829L8.9425 47.0573C9.20322 47.3958 9.49001 47.7102 9.80286 48.0124L26.1496 63.3194C26.6711 63.803 27.5054 63.8151 28.0398 63.3556L37.8818 54.88V54.8921Z" fill="#6284EA"/>
<path id="q" d="M60.9941 52.752C61.1114 52.4256 61.1636 52.0749 61.1766 51.7364V26.8052L49.4314 21.9084L37.8557 26.8173L42.5355 39.7665L61.0071 52.7399L60.9941 52.752Z" fill="#6284EA"/>
<path id="r" d="M37.8557 26.8294V31.4118L37.8818 54.88L50.4743 50.7933L52.7164 43.4784L37.8427 26.8294H37.8557Z" fill="#7796DF"/>
<path id="s" d="M37.8557 26.8294L51.3346 48.0366L52.7295 43.4784L37.8557 26.8294Z" fill="#6F89D8"/>
<path id="t" d="M71.0055 13.0822L67.6293 7.76225L59.2603 5.997L54.7109 3.25239C53.9939 2.81713 53.1466 2.5874 52.2862 2.5874H44.3996C43.5653 2.5874 42.7832 2.93803 42.2617 3.54257L37.5819 8.89879C37.3082 9.21315 37.0605 9.55169 36.8519 9.91441L44.165 21.9447L61.1896 26.8173L70.4319 14.1945C70.6796 13.856 70.8751 13.4812 71.0185 13.0943L71.0055 13.0822Z" fill="#6284EA"/>
<path id="u" d="M67.0166 1.30577C66.5604 1.20904 66.0911 1.35413 65.7913 1.68058L61.9197 5.83981L68.594 7.5567L71.4749 5.30781C71.3315 4.98136 71.1099 4.69118 70.8361 4.44937L67.6033 1.60803C67.4338 1.46295 67.2382 1.36622 67.0166 1.31786V1.30577Z" fill="#6F89D8"/>
<path id="v" d="M71.4748 5.29572L61.9327 5.8398L59.2604 5.99698L71.0186 13.0822C71.1489 12.7194 71.2402 12.3446 71.2663 11.9577L71.6964 6.50479C71.7225 6.09371 71.6573 5.68262 71.4748 5.30781V5.29572Z" fill="#7796DF"/>
<path id="w" d="M61.1766 26.8052L36.839 9.90234C36.6304 10.253 36.4479 10.6157 36.3045 10.9905L30.6731 25.6929C30.4645 26.2491 30.9077 26.8415 31.5465 26.8415H37.8297L61.1636 26.8173L61.1766 26.8052Z" fill="#7796DF"/>
<path id="x" d="M52.7295 43.4905L37.8818 54.8921L50.8784 63.4886C51.4781 63.8876 52.2993 63.7667 52.7425 63.2226L60.3815 53.9127C60.6552 53.5621 60.8768 53.1631 60.9942 52.7399L52.7165 43.4784L52.7295 43.4905Z" fill="#6F89D8"/>
<path id="y" d="M71.4749 5.29572L63.862 3.76019L61.9327 5.83981L71.4749 5.29572Z" fill="#6979D1"/>
<path id="a`" d="M71.0055 13.0822L63.8098 5.73102L59.2473 5.98492L71.0055 13.0701V13.0822Z" fill="#6F89D8"/>
<path id="aa" d="M8.9425 47.0694L11.6539 37.832L14.6913 39.295L8.9425 47.0694Z" fill="#6F89D8"/>
<path id="ab" d="M52.7295 43.4905L49.8486 45.7031L57.3963 57.5762L60.3945 53.9248C60.6683 53.5742 60.8899 53.1752 61.0072 52.752L52.7295 43.4905Z" fill="#6979D1"/>
<path id="Vector" d="M18.6932 31.7503L14.2741 37.7232L2.51589 32.0405C1.66857 31.6415 0.63875 31.9438 0.195536 32.7176C-0.0651786 33.1771 -0.0651786 33.7332 0.195536 34.1927L7.1175 46.622C7.57375 47.4442 8.17339 48.2059 8.87732 48.8709L25.2241 64.1778C26.2409 65.133 27.8704 65.1572 28.9263 64.2503L37.9861 56.4518L50.1223 64.468C50.5916 64.7823 51.1391 64.9274 51.6736 64.9274C52.4688 64.9274 53.2639 64.5889 53.7854 63.9481L61.4113 54.6503C62.1021 53.816 62.4802 52.7762 62.4802 51.7243V27.18L71.5009 14.8595C72.1136 14.0253 72.4786 13.0459 72.5568 12.0424L72.987 6.58945C73.0782 5.45291 72.622 4.35265 71.7225 3.56675L68.5027 0.737511C68.1768 0.435242 67.7596 0.229699 67.3034 0.132973C66.3779 -0.0604797 65.4263 0.229699 64.8136 0.894692L61.307 4.66701L59.6123 4.76374L55.4279 2.23677C54.4893 1.68059 53.4073 1.37832 52.2993 1.37832H44.4127C43.1873 1.37832 42.0271 1.88613 41.258 2.76876L36.5782 8.12497C35.9395 8.86251 35.4311 9.68468 35.0921 10.5794L29.4607 25.2818C29.2652 25.8017 29.2913 26.37 29.552 26.8657C29.8127 27.3614 30.2559 27.7362 30.8164 27.9297C31.0511 28.0143 31.3118 28.0506 31.5595 28.0506H36.5391V30.2148H21.8088C20.5573 30.2269 19.3841 30.7952 18.6802 31.7624L18.6932 31.7503ZM3.80643 35.3897L12.8011 39.7303L9.05982 44.7963L3.81946 35.3897H3.80643ZM39.1723 30.1785L50.9045 43.3212L39.1984 52.3167L39.1723 31.4118V30.1785ZM59.8861 49.5842L40.6323 28.0264H59.8861V49.5842ZM51.6475 62.4851L40.0327 54.8074L52.573 45.1832L59.4689 52.8971C59.4168 52.9817 59.4298 53.1026 59.3646 53.1752L51.6605 62.4851H51.6475ZM70.3798 6.57736L70.0279 11.0509L63.2754 6.97635L70.3798 6.57736ZM68.7113 4.24384L64.9309 4.46147L66.7429 2.51485L68.7113 4.24384ZM43.2786 4.2922C43.5523 3.97784 43.9695 3.79648 44.4127 3.79648H52.2993C52.912 3.79648 53.4986 3.95366 54.007 4.26802L69.35 13.5175L60.8768 25.0883L38.6248 9.63632L43.2786 4.30429V4.2922ZM32.0939 25.6445L37.3995 11.7885L57.2789 25.5961L32.0939 25.6324V25.6445ZM36.5652 32.633L36.5913 54.3722L27.0882 62.4851L10.7414 47.1782C10.7414 47.1782 10.6502 47.0452 10.598 46.9968L20.8441 33.1287C21.0657 32.8264 21.4307 32.6451 21.8218 32.6451H36.5521L36.5652 32.633Z" fill="white" fill-opacity="0.8"/>
</g>
</g>
</g>
<defs>
<clipPath id="clip0_1_122">
<rect width="73" height="65" fill="white"/>
</clipPath>
</defs>
</svg>
