<!DOCTYPE svg PUBLIC "-//W3C//DTD SVG 1.1//EN" "http://www.w3.org/Graphics/SVG/1.1/DTD/svg11.dtd">
<!-- Uploaded to: SVG Repo, www.svgrepo.com, Transformed by: SVG Repo Mixer Tools -->
<svg width="800px" height="800px" viewBox="0 0 64 64" xmlns="http://www.w3.org/2000/svg" fill="#000000">
<g id="SVGRepo_bgCarrier" stroke-width="0"/>
<g id="SVGRepo_tracerCarrier" stroke-linecap="round" stroke-linejoin="round"/>
<g id="SVGRepo_iconCarrier"> <g id="a"/> <g id="b"/> <g id="c"/> <g id="d"/> <g id="e"/> <g id="f"/> <g id="g"/> <g id="h"/> <g id="i"/> <g id="j"/> <g id="k"/> <g id="l"/> <g id="m"/> <g id="n"> <path d="M10.86,44.05l5.5-1.79-1.09-4.64-9.8-5.1c-.28-.15-.58,.15-.43,.43l5.31,10.28c.15,.29,.32,.56,.51,.83h0Z" fill="#7796df" id="o"/> <path d="M33.06,50.52l2.84-9.67-2.86-9.75h-12.3c-.63,.01-1.22,.32-1.58,.84l-3.89,5.67-4.41,6.43c.2,.28,.42,.54,.66,.79l12.54,12.66c.4,.4,1.04,.41,1.45,.03l7.55-7.01Z" fill="#6284ea" id="p"/> <path d="M50.79,48.75c.09-.27,.13-.56,.14-.84V27.29l-9.01-4.05-8.88,4.06,3.59,10.71,14.17,10.73Z" fill="#6284ea" id="q"/> <path d="M33.04,27.31v3.79l.02,19.41,9.66-3.38,1.72-6.05-11.41-13.77Z" fill="#7796df" id="r"/> <path d="M33.04,27.31l10.34,17.54,1.07-3.77-11.41-13.77Z" fill="#6f89d8" id="s"/> <path d="M58.47,15.94l-2.59-4.4-6.42-1.46-3.49-2.27c-.55-.36-1.2-.55-1.86-.55h-6.05c-.64,0-1.24,.29-1.64,.79l-3.59,4.43c-.21,.26-.4,.54-.56,.84l5.61,9.95,13.06,4.03,7.09-10.44c.19-.28,.34-.59,.45-.91h0Z" fill="#6284ea" id="t"/> <path d="M55.41,6.2c-.35-.08-.71,.04-.94,.31l-2.97,3.44,5.12,1.42,2.21-1.86c-.11-.27-.28-.51-.49-.71l-2.48-2.35c-.13-.12-.28-.2-.45-.24h0Z" fill="#6f89d8" id="u"/> <path d="M58.83,9.5l-7.32,.45-2.05,.13,9.02,5.86c.1-.3,.17-.61,.19-.93l.33-4.51c.02-.34-.03-.68-.17-.99h0Z" fill="#7796df" id="v"/> <path d="M50.93,27.29l-18.67-13.98c-.16,.29-.3,.59-.41,.9l-4.32,12.16c-.16,.46,.18,.95,.67,.95h4.82l17.9-.02Z" fill="#7796df" id="w"/> <path d="M44.45,41.09l-11.39,9.43,9.97,7.11c.46,.33,1.09,.23,1.43-.22l5.86-7.7c.21-.29,.38-.62,.47-.97l-6.35-7.66Z" fill="#6f89d8" id="x"/> <path d="M58.83,9.5l-5.84-1.27-1.48,1.72,7.32-.45Z" fill="#4084dd" id="y"/> <path d="M58.47,15.94l-5.52-6.08-3.5,.21,9.02,5.86Z" fill="#6f89d8" id="a`"/> <path d="M10.86,44.05l2.08-7.64,2.33,1.21-4.41,6.43Z" fill="#6f89d8" id="aa"/> <path d="M44.45,41.09l-2.21,1.83,5.79,9.82,2.3-3.02c.21-.29,.38-.62,.47-.97l-6.35-7.66Z" fill="#4084dd" id="ab"/> <path d="M18.34,31.38l-3.39,4.94-9.02-4.7c-.65-.33-1.44-.08-1.78,.56-.2,.38-.2,.84,0,1.22l5.31,10.28c.35,.68,.81,1.31,1.35,1.86l12.54,12.66c.78,.79,2.03,.81,2.84,.06l6.95-6.45,9.31,6.63c.36,.26,.78,.38,1.19,.38,.61,0,1.22-.28,1.62-.81l5.85-7.69c.53-.69,.82-1.55,.82-2.42V27.6l6.92-10.19c.47-.69,.75-1.5,.81-2.33l.33-4.51c.07-.94-.28-1.85-.97-2.5l-2.47-2.34c-.25-.25-.57-.42-.92-.5h0c-.71-.16-1.44,.08-1.91,.63l-2.69,3.12-1.3,.08-3.21-2.09c-.72-.46-1.55-.71-2.4-.71h-6.05c-.94,0-1.83,.42-2.42,1.15l-3.59,4.43c-.49,.61-.88,1.29-1.14,2.03l-4.32,12.16c-.15,.43-.13,.9,.07,1.31s.54,.72,.97,.88c.18,.07,.38,.1,.57,.1h3.82v1.79h-11.3c-.96,.01-1.86,.48-2.4,1.28Zm-11.42,3.01l6.9,3.59-2.87,4.19-4.02-7.78Zm27.13-4.31l9,10.87-8.98,7.44-.02-17.29h0v-1.02Zm15.89,16.05l-14.77-17.83h14.77v17.83Zm-6.32,10.67l-8.91-6.35,9.62-7.96,5.29,6.38c-.04,.07-.03,.17-.08,.23l-5.91,7.7ZM57.99,10.56l-.27,3.7-5.18-3.37,5.45-.33Zm-1.28-1.93l-2.9,.18,1.39-1.61,1.51,1.43Zm-19.51,.04c.21-.26,.53-.41,.87-.41h6.05c.47,0,.92,.13,1.31,.39l11.77,7.65-6.5,9.57-17.07-12.78,3.57-4.41Zm-8.58,17.66l4.07-11.46,15.25,11.42-19.32,.03Zm3.43,5.78l.02,17.98-7.29,6.71-12.54-12.66s-.07-.11-.11-.15l7.86-11.47c.17-.25,.45-.4,.75-.4h11.3Z"/> </g> <g id="ac"/> <g id="ad"/> <g id="ae"/> <g id="af"/> <g id="ag"/> <g id="ah"/> <g id="ai"/> <g id="aj"/> <g id="ak"/> <g id="al"/> <g id="am"/> <g id="an"/> <g id="ao"/> <g id="ap"/> <g id="aq"/> <g id="ar"/> <g id="as"/> <g id="at"/> <g id="au"/> <g id="av"/> <g id="aw"/> <g id="ax"/> <g id="ay"/> <g id="b`"/> <g id="ba"/> <g id="bb"/> <g id="bc"/> <g id="bd"/> <g id="be"/> <g id="bf"/> <g id="bg"/> <g id="bh"/> <g id="bi"/> <g id="bj"/> <g id="bk"/> <g id="bl"/> </g>
</svg>