<svg width="478" height="462" viewBox="0 0 478 462" fill="none" xmlns="http://www.w3.org/2000/svg">
<g clip-path="url(#clip0_1_3)">
<path d="M58.555 334.555L105.501 319.172L96.1975 279.297L12.5475 235.469C10.1575 234.18 7.59679 236.758 8.87714 239.164L54.2018 327.508C55.4821 330 56.9332 332.32 58.555 334.641V334.555Z" fill="#7796DF"/>
<path d="M248.048 390.156L272.289 307.055L247.877 223.266H142.888C137.51 223.352 132.474 226.016 129.401 230.484L96.1975 279.211L58.555 334.469C60.2621 336.875 62.14 339.109 64.1886 341.258L171.226 450.055C174.641 453.492 180.104 453.578 183.603 450.312L248.048 390.07V390.156Z" fill="#6284EA"/>
<path d="M399.386 374.945C400.154 372.625 400.496 370.133 400.581 367.727V190.523L323.674 155.719L247.877 190.609L278.52 282.648L399.471 374.859L399.386 374.945Z" fill="#6284EA"/>
<path d="M247.877 190.695V223.266L248.048 390.07L330.503 361.023L345.184 309.031L247.792 190.695H247.877Z" fill="#7796DF"/>
<path d="M247.877 190.695L336.136 341.43L345.27 309.031L247.877 190.695Z" fill="#6F89D8"/>
<path d="M464.94 92.9844L442.833 55.1719L388.034 42.625L358.244 23.1172C353.549 20.0234 348.001 18.3906 342.368 18.3906H290.726C285.264 18.3906 280.142 20.8828 276.728 25.1797L246.085 63.25C244.292 65.4844 242.67 67.8906 241.305 70.4687L289.19 155.977L400.666 190.609L461.185 100.891C462.806 98.4844 464.087 95.8203 465.026 93.0703L464.94 92.9844Z" fill="#6284EA"/>
<path d="M438.821 9.28123C435.834 8.59373 432.761 9.62499 430.798 11.9453L405.446 41.5078L449.149 53.7109L468.013 37.7265C467.074 35.4062 465.623 33.3437 463.831 31.625L442.662 11.4297C441.553 10.3984 440.272 9.71092 438.821 9.36717V9.28123Z" fill="#6F89D8"/>
<path d="M468.013 37.6406L405.532 41.5078L388.034 42.625L465.026 92.9844C465.879 90.4062 466.477 87.7422 466.647 84.9922L469.464 46.2344C469.635 43.3125 469.208 40.3906 468.013 37.7266V37.6406Z" fill="#7796DF"/>
<path d="M400.581 190.523L241.219 70.3828C239.854 72.875 238.659 75.4531 237.72 78.1172L200.845 182.617C199.48 186.57 202.382 190.781 206.564 190.781H247.706L400.496 190.609L400.581 190.523Z" fill="#7796DF"/>
<path d="M345.27 309.117L248.048 390.156L333.149 451.258C337.075 454.094 342.453 453.234 345.355 449.367L395.374 383.195C397.167 380.703 398.618 377.867 399.386 374.859L345.184 309.031L345.27 309.117Z" fill="#6F89D8"/>
<path d="M468.013 37.6406L418.165 26.7266L405.532 41.5078L468.013 37.6406Z" fill="#6979D1"/>
<path d="M464.94 92.9844L417.823 40.7344L387.948 42.5391L464.94 92.8984V92.9844Z" fill="#6F89D8"/>
<path d="M58.555 334.555L76.3093 268.898L96.1975 279.297L58.555 334.555Z" fill="#6F89D8"/>
<path d="M345.27 309.117L326.406 324.844L375.827 409.234L395.46 383.281C397.252 380.789 398.703 377.953 399.471 374.945L345.27 309.117Z" fill="#6979D1"/>
<path d="M122.402 225.672L93.4661 268.125L16.4739 227.734C10.9257 224.898 4.1825 227.047 1.28036 232.547C-0.426786 235.812 -0.426786 239.766 1.28036 243.031L46.605 331.375C49.5925 337.219 53.5189 342.633 58.1282 347.359L165.166 456.156C171.824 462.945 182.494 463.117 189.408 456.672L248.731 401.242L328.198 458.219C331.271 460.453 334.856 461.484 338.356 461.484C343.562 461.484 348.769 459.078 352.184 454.523L402.117 388.437C406.641 382.508 409.117 375.117 409.117 367.641V193.187L468.184 105.617C472.196 99.6875 474.586 92.7266 475.098 85.5937L477.915 46.8359C478.512 38.7578 475.525 30.9375 469.635 25.3516L448.552 5.24218C446.418 3.09374 443.686 1.6328 440.699 0.945304C434.639 -0.429696 428.408 1.6328 424.396 6.35937L401.435 33.1719L390.338 33.8594L362.939 15.8984C356.793 11.9453 349.708 9.79687 342.453 9.79687H290.812C282.788 9.79687 275.191 13.4062 270.155 19.6797L239.512 57.75C235.33 62.9922 232.001 68.8359 229.781 75.1953L192.907 179.695C191.627 183.391 191.798 187.43 193.505 190.953C195.212 194.477 198.114 197.141 201.784 198.516C203.321 199.117 205.028 199.375 206.65 199.375H239.256V214.758H142.802C134.608 214.844 126.926 218.883 122.317 225.758L122.402 225.672ZM24.9243 251.539L83.8207 282.391L59.3232 318.398L25.0096 251.539H24.9243ZM256.498 214.5L333.32 307.914L256.669 371.852L256.498 223.266V214.5ZM392.131 352.43L266.058 199.203H392.131V352.43ZM338.185 444.125L262.132 389.555L344.245 321.148L389.399 375.977C389.058 376.578 389.143 377.437 388.716 377.953L338.27 444.125H338.185ZM460.843 46.75L458.539 78.5469L414.324 49.5859L460.843 46.75ZM449.917 30.1641L425.164 31.7109L437.029 17.875L449.917 30.1641ZM283.386 30.5078C285.178 28.2734 287.91 26.9844 290.812 26.9844H342.453C346.465 26.9844 350.306 28.1015 353.635 30.3359L454.1 96.0781L398.618 178.32L252.913 68.4922L283.386 30.5937V30.5078ZM210.149 182.273L244.89 83.7891L375.059 181.93L210.149 182.187V182.273ZM239.427 231.945L239.597 386.461L177.372 444.125L70.3343 335.328C70.3343 335.328 69.7368 334.383 69.3954 334.039L136.486 235.469C137.937 233.32 140.327 232.031 142.888 232.031H239.341L239.427 231.945Z" fill="white" fill-opacity="0.8"/>
</g>
<defs>
<clipPath id="clip0_1_3">
<rect width="478" height="462" fill="white"/>
</clipPath>
</defs>
</svg>
