<!DOCTYPE svg PUBLIC "-//W3C//DTD SVG 1.1//EN" "http://www.w3.org/Graphics/SVG/1.1/DTD/svg11.dtd">
<!-- Uploaded to: SVG Repo, www.svgrepo.com, Transformed by: SVG Repo Mixer Tools -->
<svg fill="#fff" height="800px" width="800px" version="1.1" id="Capa_1" xmlns="http://www.w3.org/2000/svg" xmlns:xlink="http://www.w3.org/1999/xlink" viewBox="0 0 298.80 298.80" xml:space="preserve" stroke="#fff" stroke-width="0.0029879800000000003">
<g id="SVGRepo_bgCarrier" stroke-width="0"/>
<g id="SVGRepo_tracerCarrier" stroke-linecap="round" stroke-linejoin="round" stroke="#CCCCCC" stroke-width="1.195192"/>
<g id="SVGRepo_iconCarrier"> <g> <path d="M51.936,205.946c3.818,6.709,8.598,10.987,12.122,13.486c4.01,14.508,17.317,25.194,33.082,25.194 c1.172,0,47.793,0,47.793,0c4.8,0,8.69-3.891,8.69-8.69c0-4.799-3.891-8.689-8.69-8.689h-17.961 c4.501-7.93,4.562-13.615,4.595-17.989c0.009-1.248,0.729-14.334-11.412-23.399c-2.827-2.111-3.504-6.2-1.323-9.121 c2.154-2.881,6.239-3.477,9.122-1.322c9.049,6.754,14.918,17.003,16.288,28.092l19.284-8.752l-51.271-51.271l-18.9,8.479 c-18.429,8.267-30.334,26.499-30.53,46.664c-4.463-8.576-6.599-22.599,2.529-44.469c1.387-3.321-0.184-7.139-3.505-8.524 c-3.32-1.388-7.138,0.182-8.524,3.503C41.533,177.388,46.063,195.624,51.936,205.946z"/> <path d="M237.14,76.265h-15.882c0-15.718-12.743-28.46-28.459-28.46c-6.85,0-13.135,2.422-18.045,6.454 c4.248,1.318,7.94,4.189,10.221,8.14c14.581,25.264,14.581,32.892,14.581,36.146c0,16.583-13.492,30.075-30.074,30.075 c-3.612,0-7.07-0.654-10.279-1.83l38.613,38.613c1.49-4.248,2.298-8.779,2.298-13.439v-2.924v-22.844 c0-7.336,5.947-13.283,13.283-13.283h7.443c6.877,0,13.038-4.253,15.477-10.683l6.648-17.525c0.727-1.915,0.467-4.064-0.697-5.749 C241.105,77.271,239.188,76.265,237.14,76.265z M201.634,78.652c-2.04,0-3.693-1.653-3.693-3.692c0-2.04,1.653-3.693,3.693-3.693 c2.04,0,3.692,1.653,3.692,3.693C205.326,76.999,203.674,78.652,201.634,78.652z"/> <path d="M175.348,244.627h17.451c4.799,0,8.689-3.891,8.689-8.69c0-5.086-4.553-8.689-8.689-8.689h-8.763v-11.982l-17.38-17.38 v38.052C166.656,240.736,170.548,244.627,175.348,244.627z"/> <path d="M186.52,98.545c0-6.362-7.79-20.89-12.835-29.63c-0.867-1.504-2.466-2.432-4.2-2.434c-1.735,0-3.338,0.926-4.205,2.428 c-5.046,8.741-12.839,23.273-12.839,29.636c0,9.41,7.63,17.039,17.04,17.039C178.893,115.584,186.52,107.955,186.52,98.545z"/> <path d="M149.398,0C66.971,0,0,67.108,0,149.399c0,82.379,67.019,149.398,149.398,149.398c82.236,0,149.399-66.908,149.399-149.398 C298.798,67.021,231.777,0,149.398,0z M149.398,276.001c-69.809,0-126.602-56.793-126.602-126.602 c0-30.135,10.63-58.698,29.698-81.374l178.278,178.276C208.068,265.403,179.471,276.001,149.398,276.001z M246.845,230.132 L68.665,51.953c21.932-18.196,50.094-29.156,80.733-29.156c69.809,0,126.603,56.794,126.603,126.603 C276.001,180.038,265.042,208.199,246.845,230.132z"/> </g> </g>
</svg>